<svg height="512pt" viewBox="0 -12 512.00025 512" width="512pt" xmlns="http://www.w3.org/2000/svg"><path d="m508.679688 234.796875-46.410157-57.613281 3.6875-73.886719c.351563-7.046875-4.253906-13.382813-11.0625-15.226563l-71.410156-19.328124-40.449219-61.941407c-3.859375-5.90625-11.3125-8.328125-17.898437-5.816406l-69.136719 26.335937-69.132812-26.335937c-6.589844-2.511719-14.042969-.089844-17.898438 5.816406l-40.449219 61.941407-71.410156 19.328124c-6.808594 1.84375-11.414063 8.183594-11.0625 15.226563l3.683594 73.890625-46.410157 57.609375c-4.425781 5.492187-4.425781 13.324219 0 18.820313l46.410157 57.609374-3.683594 73.886719c-.351563 7.046875 4.253906 13.382813 11.0625 15.230469l71.40625 19.328125 40.453125 61.941406c3.855469 5.90625 11.3125 8.324219 17.898438 5.8125l69.132812-26.335937 69.132812 26.335937c1.746094.667969 3.554688.984375 5.335938.984375 4.953125 0 9.730469-2.457031 12.566406-6.800781l40.445313-61.941406 71.414062-19.328125c6.808594-1.84375 11.414063-8.179688 11.0625-15.226563l-3.6875-73.886719 46.410157-57.613281c4.425781-5.492187 4.425781-13.324219 0-18.816406zm-73.355469 62.058594c-2.3125 2.867187-3.484375 6.480469-3.300781 10.15625l3.367187 67.527343-65.265625 17.664063c-3.550781.960937-6.625 3.195313-8.640625 6.277344l-36.964844 56.609375-63.179687-24.070313c-3.441406-1.308593-7.242188-1.308593-10.679688 0l-63.183594 24.070313-36.96875-56.609375c-2.011718-3.082031-5.085937-5.316407-8.640624-6.277344l-65.257813-17.664063 3.367187-67.527343c.1875-3.675781-.988281-7.289063-3.300781-10.15625l-42.414062-52.648438 42.414062-52.652343c2.3125-2.863282 3.484375-6.480469 3.300781-10.15625l-3.367187-67.527344 65.265625-17.664063c3.550781-.960937 6.625-3.195312 8.640625-6.277343l36.964844-56.605469 63.179687 24.066406c3.441406 1.3125 7.242188 1.3125 10.679688 0l63.183594-24.066406 36.96875 56.605469c2.011718 3.082031 5.085937 5.316406 8.640624 6.277343l65.261719 17.664063-3.367187 67.527344c-.1875 3.675781.988281 7.292968 3.300781 10.15625l42.414063 52.652343zm0 0"/><path d="m271.621094 229.203125h-31.246094c-8.507812 0-16.507812-3.3125-22.527344-9.332031-6.015625-6.015625-9.328125-14.019532-9.328125-22.53125 0-8.507813 3.3125-16.507813 9.328125-22.523438 6.019532-6.019531 14.019532-9.335937 22.53125-9.335937h15.605469.015625.011719 46.851562c8.285157 0 15-6.71875 15-15.003907 0-8.28125-6.71875-14.996093-15.003906-14.996093h-31.859375v-31.859375c0-8.28125-6.71875-15-15-15-8.285156 0-15 6.71875-15 15v31.859375h-.621094c-16.523437 0-32.058594 6.4375-43.742187 18.121093-11.683594 11.683594-18.117188 27.21875-18.117188 43.738282 0 16.523437 6.433594 32.0625 18.117188 43.746094 11.683593 11.683593 27.21875 18.117187 43.742187 18.117187h31.242188c17.570312 0 31.863281 14.292969 31.863281 31.863281 0 17.566406-14.292969 31.859375-31.859375 31.859375h-62.488281c-8.285157 0-15 6.714844-15 15 0 8.285157 6.714843 15 15 15h31.863281v31.859375c0 8.285156 6.714844 15 15 15s15-6.714844 15-15v-31.859375h.625c34.109375 0 61.859375-27.75 61.859375-61.859375 0-34.113281-27.753906-61.863281-61.863281-61.863281zm0 0"/></svg>